<?xml version="1.0" standalone="no"?>
<!DOCTYPE svg PUBLIC "-//W3C//DTD SVG 20010904//EN"
 "http://www.w3.org/TR/2001/REC-SVG-20010904/DTD/svg10.dtd">
<svg version="1.0" xmlns="http://www.w3.org/2000/svg"
 width="400.000000pt" height="302.000000pt" viewBox="0 0 400.000000 302.000000"
 preserveAspectRatio="xMidYMid meet">

<g transform="translate(0.000000,302.000000) scale(0.100000,-0.100000)"
fill="#FFFFFF" stroke="none">
<path d="M1454 2990 c-502 -42 -876 -221 -1155 -550 -125 -147 -224 -357 -271
-573 -19 -89 -22 -132 -22 -327 0 -260 11 -344 75 -535 70 -211 163 -360 323
-520 201 -200 427 -325 731 -405 377 -98 980 -101 1283 -5 92 29 134 66 153
137 20 75 58 296 71 409 13 121 8 144 -33 144 -20 0 -27 -9 -41 -55 -65 -203
-160 -323 -313 -396 -101 -48 -170 -63 -343 -76 -409 -31 -697 71 -976 347
-207 204 -321 429 -378 745 -19 108 -16 437 6 565 23 136 41 204 83 310 68
172 197 338 338 435 151 104 367 160 615 160 291 0 519 -56 695 -171 133 -87
224 -246 225 -394 0 -87 42 -132 75 -82 13 20 18 72 25 263 5 132 15 286 21
343 9 85 9 105 -2 116 -16 15 -448 89 -614 104 -159 15 -454 21 -571 11z"/>
<path d="M2832 2943 c14 -31 20 -67 20 -105 -1 -55 0 -58 26 -64 261 -58 450
-149 570 -276 66 -69 87 -118 134 -320 8 -33 12 -38 38 -38 19 0 31 6 34 18 4
10 11 149 16 308 5 159 13 313 16 341 9 67 -2 80 -74 88 -31 3 -151 21 -267
40 -214 35 -388 55 -482 55 l-52 0 21 -47z"/>
<path d="M1454 2593 c-32 -3 -48 -13 -80 -46 -197 -208 -327 -465 -380 -752
-26 -138 -26 -479 0 -610 43 -223 134 -433 249 -579 41 -51 178 -118 302 -147
83 -19 116 -21 284 -18 104 2 193 8 197 12 5 4 -7 20 -26 34 -119 88 -282 299
-355 455 -76 165 -112 293 -129 451 -53 498 48 896 284 1121 33 32 60 60 58
61 -2 1 -41 8 -87 14 -79 10 -225 12 -317 4z"/>
<path d="M2853 1474 c-14 -10 -16 -17 -7 -31 9 -14 31 -20 100 -26 49 -5 108
-15 132 -24 56 -20 108 -72 121 -120 15 -59 26 -846 12 -918 -19 -104 -79
-132 -299 -142 l-132 -6 -11 -41 c-13 -47 -45 -113 -67 -138 -13 -16 -13 -18
2 -24 24 -9 375 13 486 31 167 28 328 75 432 127 76 37 72 11 78 588 l5 515
29 52 c36 65 80 88 184 98 77 7 96 21 75 54 -9 14 -66 16 -566 17 -446 1 -560
-1 -574 -12z"/>
</g>
</svg>
